<?xml version="1.0" encoding="utf-8"?>
<!-- Generator: Adobe Illustrator 16.0.0, SVG Export Plug-In . SVG Version: 6.00 Build 0)  -->
<!DOCTYPE svg PUBLIC "-//W3C//DTD SVG 1.1//EN" "http://www.w3.org/Graphics/SVG/1.1/DTD/svg11.dtd">
<svg version="1.1" id="Layer_1" xmlns="http://www.w3.org/2000/svg" xmlns:xlink="http://www.w3.org/1999/xlink" x="0px" y="0px"
	 width="2469px" height="1010px" viewBox="0 0 2469 1010" enable-background="new 0 0 2469 1010" xml:space="preserve">
<g id="XMLID_1_">
	<g>
		<polygon fill="#FFFFFF" points="2400,281 2399,298 1434,296 1414,442 1390,442 1395,298 1024,296 1024,270 		"/>
		<path fill="#FFFFFF" d="M2395,330l-1,109c0,0-2,9-14,1c0,0-171-63-391-37c0,0-39-25,16-26c0,0,226-3,356,32l1-78
			C2362,331,2383,329,2395,330z"/>
		<rect x="2377.52" y="562.45" fill="#FFFFFF" width="13.83" height="55.54"/>
		<path fill="#FFFFFF" d="M2320.98,562.45l33.48,55.54h-15.81l-7.24-12.71h-33.71l-7.03,12.71h-15.48l33.82-55.54H2320.98z
			 M2326.58,596.81l-11.97-22.59l-12.19,22.59H2326.58z"/>
		<polygon fill="#FFFFFF" points="2314.61,574.22 2326.58,596.81 2302.42,596.81 		"/>
		<polygon fill="#FFFFFF" points="2252.13,562.45 2252.13,617.99 2238.3,617.99 2238.3,593.36 2201.96,593.36 2201.96,617.99 
			2188.12,617.99 2188.12,562.45 2201.96,562.45 2201.96,584.89 2238.3,584.89 2238.3,562.45 		"/>
		<polygon fill="#FFFFFF" points="2163.75,562.45 2163.75,571.08 2139.92,571.08 2139.92,617.99 2126.09,617.99 2126.09,571.08 
			2102.26,571.08 2102.26,562.45 		"/>
		<polygon fill="#FFFFFF" points="2077.89,562.45 2077.89,617.99 2060.32,617.99 2023.43,575.08 2023.21,575.08 2023.21,617.99 
			2009.37,617.99 2009.37,562.45 2027.71,562.45 2063.83,604.03 2064.05,604.03 2064.05,562.45 		"/>
		<polygon fill="#FFFFFF" points="1976.87,562.45 1976.87,617.99 1963.04,617.99 1963.04,593.36 1926.7,593.36 1926.7,617.99 
			1912.86,617.99 1912.86,562.45 1926.7,562.45 1926.7,584.89 1963.04,584.89 1963.04,562.45 		"/>
		<path fill="#FFFFFF" d="M1834.01,402.99c1.2-0.42,99.02-34.87,103.99-15.99c0,0,10,13-63,25c0,0-80,20-97,35c0,0-23-10-2-21
			c0,0,71-55,52-59c0,0,9-25-75,6c0,0-45,3-41,45v15c0,0-3,8-18-1c0,0,8-49,4-56c0,0,113-52,151-30
			C1849,346,1869,370,1834.01,402.99z"/>
		<path fill="#FFFFFF" d="M1856.32,562.45l33.48,55.54h-15.81l-7.24-12.71h-33.71l-7.03,12.71h-15.48l33.82-55.54H1856.32z
			 M1861.92,596.81l-11.97-22.59l-12.19,22.59H1861.92z"/>
		<polygon fill="#FFFFFF" points="1849.95,574.22 1861.92,596.81 1837.76,596.81 		"/>
		<path fill="#FFFFFF" d="M1786.27,592.81c3.14,2.25,4.72,5.26,4.72,9.02c0,3.04-0.84,5.59-2.53,7.65c-1.68,2.07-3.9,3.73-6.64,4.98
			c-2.74,1.26-5.89,2.16-9.44,2.71c-3.55,0.55-7.16,0.82-10.82,0.82h-28v-55.54h30.31c2.92,0,5.82,0.25,8.67,0.75
			c2.86,0.5,5.4,1.31,7.63,2.43s4.05,2.58,5.44,4.35c1.39,1.78,2.08,3.93,2.08,6.44c0,3.13-1.24,5.72-3.73,7.76
			c-2.49,2.04-5.75,3.51-9.77,4.4v0.15C1779.09,589.2,1783.12,590.56,1786.27,592.81z M1777.15,601.36c0-2.93-1.39-4.97-4.17-6.12
			c-2.78-1.15-6.99-1.72-12.63-1.72h-12.95v16.16h12.41c1.75,0,3.65-0.09,5.71-0.28c2.04-0.18,3.93-0.56,5.65-1.13
			c1.72-0.58,3.15-1.42,4.28-2.52C1776.59,604.66,1777.15,603.19,1777.15,601.36z M1770.24,583.08c2.41-1.3,3.62-3.16,3.62-5.57
			c0-2.51-1.25-4.28-3.73-5.33c-2.49-1.05-6.37-1.57-11.64-1.57h-11.09v14.43h12.3C1764.31,585.04,1767.82,584.39,1770.24,583.08z"
			/>
		<path fill="#FFFFFF" d="M1772.98,595.24c2.78,1.15,4.17,3.19,4.17,6.12c0,1.83-0.56,3.3-1.7,4.39c-1.13,1.1-2.56,1.94-4.28,2.52
			c-1.72,0.57-3.61,0.95-5.65,1.13c-2.06,0.19-3.96,0.28-5.71,0.28h-12.41v-16.16h12.95
			C1765.99,593.52,1770.2,594.09,1772.98,595.24z"/>
		<path fill="#FFFFFF" d="M1773.86,577.51c0,2.41-1.21,4.27-3.62,5.57c-2.42,1.31-5.93,1.96-10.54,1.96h-12.3v-14.43h11.09
			c5.27,0,9.15,0.52,11.64,1.57C1772.61,573.23,1773.86,575,1773.86,577.51z"/>
		<path fill="#FFFFFF" d="M1677,353c6-2,17,13,17,13c-15,13-28,19-28,19c-98-21-114-4-114-4c-34,30-1,31-1,31c22,9,63,0,63,0
			c27-10,24,5,24,5c-4,15-66,17-66,17c-81-2-60-39-60-39c47-68,147-30,147-30L1677,353z"/>
		<path fill="#FFFFFF" d="M1364,327l-9,104c0,0,2,27-38-5c0,0-58-56-169-40c0,0-112,36-156,55c0,0-6,3-21,1c0,0,194-160,362-32v-81
			L1364,327z"/>
		<path fill="#FFFFFF" d="M919,369c25,26-1,49-1,49c-43,45-101,33-101,33c-39-15-26-52-26-52l-77,9c-83,59-119,52-119,52
			c-47-3-30-43-30-43c33-49,104-52,104-52c36-1,16,23,16,23l-23-5c-34,2-52,23-52,23c-46,35-7,33-7,33c78-12,97-46,97-46
			c42,1,92-10,92-10c45-34,71-26,71-26c5,11-1,18-1,18c-7-2-30,8-30,8c-33,28-6,47-6,47c62,9,76-24,76-24c25-15,7-22,7-22
			c-18-4-17,6-17,6c-20,6-20-6-20-6C870,367,919,369,919,369z"/>
		<path fill="#FFFFFF" d="M659,31c0,0,176,5,49,161c0,0-241,233-298,305c0,0-228,276-289,382c0,0-6,9,11,0c0,0,25-6,1,22
			c0,0-41,47-51,71c0,0-15,32-40-15c0,0-28-7,104-168c0,0,265-334,282-345c0,0,160-173,185-194c0,0,49-42,82-89
			c0,0,119.01-170.45-185-82c0,0-111,48-131,68c0,0-105,72-136,117c0,0-53,77-20,101c0,0,23,27,83,39c0,0,72,15,50,74l-126,65
			c0,0-6,5,4,6c0,0,19,3,1,7c0,0-32,11-42,15c0,0-29-9,31-38c0,0,75-48,80-56c0,0,32-29-19-50c0,0-8-1-61-30c0,0-100-43,20-180
			C244,217,451,5,659,31z"/>
		<path fill="#FFFFFF" d="M504,468l-7,9c-19,4-14-6-14-6C498,445,504,468,504,468z"/>
	</g>
	<g>
		<path fill="none" stroke="#000000" stroke-width="0.5" stroke-linecap="round" stroke-linejoin="round" d="M695,161
			c0,0,119.01-170.45-185-82c0,0-111,48-131,68c0,0-105,72-136,117c0,0-53,77-20,101c0,0,23,27,83,39c0,0,72,15,50,74l-126,65
			c0,0-6,5,4,6c0,0,19,3,1,7c0,0-32,11-42,15c0,0-29-9,31-38c0,0,75-48,80-56c0,0,32-29-19-50c0,0-8-1-61-30c0,0-100-43,20-180
			c0,0,207-212,415-186c0,0,176,5,49,161c0,0-241,233-298,305c0,0-228,276-289,382c0,0-6,9,11,0c0,0,25-6,1,22c0,0-41,47-51,71
			c0,0-15,32-40-15c0,0-28-7,104-168c0,0,265-334,282-345c0,0,160-173,185-194C613,250,662,208,695,161z"/>
		<path fill="none" stroke="#000000" stroke-width="0.5" stroke-linecap="round" stroke-linejoin="round" d="M504,468c0,0-6-23-21,3
			c0,0-5,10,14,6L504,468z"/>
		<path fill="none" stroke="#000000" stroke-width="0.5" stroke-linecap="round" stroke-linejoin="round" d="M685,388
			c0,0,20-24-16-23c0,0-71,3-104,52c0,0-17,40,30,43c0,0,36,7,119-52l77-9c0,0-13,37,26,52c0,0,58,12,101-33c0,0,26-23,1-49
			c0,0-49-2-47,15c0,0,0,12,20,6c0,0-1-10,17-6c0,0,18,7-7,22c0,0-14,33-76,24c0,0-27-19,6-47c0,0,23-10,30-8c0,0,6-7,1-18
			c0,0-26-8-71,26c0,0-50,11-92,10c0,0-19,34-97,46c0,0-39,2,7-33c0,0,18-21,52-23L685,388z"/>
		<polygon fill="none" stroke="#000000" stroke-width="0.5" stroke-linecap="round" stroke-linejoin="round" points="1024,270 
			2400,281 2399,298 1434,296 1414,442 1390,442 1395,298 1024,296 		"/>
		<path fill="none" stroke="#000000" stroke-width="0.5" stroke-linecap="round" stroke-linejoin="round" d="M1364,327l-9,104
			c0,0,2,27-38-5c0,0-58-56-169-40c0,0-112,36-156,55c0,0-6,3-21,1c0,0,194-160,362-32v-81L1364,327z"/>
		<path fill="none" stroke="#000000" stroke-width="0.5" stroke-linecap="round" stroke-linejoin="round" d="M1694,366
			c0,0-11-15-17-13l-18,12c0,0-100-38-147,30c0,0-21,37,60,39c0,0,62-2,66-17c0,0,3-15-24-5c0,0-41,9-63,0c0,0-33-1,1-31
			c0,0,16-17,114,4C1666,385,1679,379,1694,366z"/>
		
			<line fill="none" stroke="#000000" stroke-width="0.5" stroke-linecap="round" stroke-linejoin="round" x1="1834.01" y1="402.99" x2="1834" y2="403"/>
		<path fill="none" stroke="#000000" stroke-width="0.5" stroke-linecap="round" stroke-linejoin="round" d="M1834.01,402.99
			c1.2-0.42,99.02-34.87,103.99-15.99c0,0,10,13-63,25c0,0-80,20-97,35c0,0-23-10-2-21c0,0,71-55,52-59c0,0,9-25-75,6
			c0,0-45,3-41,45v15c0,0-3,8-18-1c0,0,8-49,4-56c0,0,113-52,151-30C1849,346,1869,370,1834.01,402.99z"/>
		<path fill="none" stroke="#000000" stroke-width="0.5" stroke-linecap="round" stroke-linejoin="round" d="M2395,330l-1,109
			c0,0-2,9-14,1c0,0-171-63-391-37c0,0-39-25,16-26c0,0,226-3,356,32l1-78C2362,331,2383,329,2395,330z"/>
		<path fill="none" stroke="#000000" stroke-width="0.5" stroke-linecap="round" stroke-linejoin="round" d="M1733.56,617.99h28
			c3.66,0,7.27-0.27,10.82-0.82c3.55-0.55,6.7-1.45,9.44-2.71c2.74-1.25,4.96-2.91,6.64-4.98c1.69-2.06,2.53-4.61,2.53-7.65
			c0-3.76-1.58-6.77-4.72-9.02c-3.15-2.25-7.18-3.61-12.08-4.08v-0.15c4.02-0.89,7.28-2.36,9.77-4.4c2.49-2.04,3.73-4.63,3.73-7.76
			c0-2.51-0.69-4.66-2.08-6.44c-1.39-1.77-3.21-3.23-5.44-4.35s-4.77-1.93-7.63-2.43c-2.85-0.5-5.75-0.75-8.67-0.75h-30.31V617.99z"
			/>
		<path fill="none" stroke="#000000" stroke-width="0.5" stroke-linecap="round" stroke-linejoin="round" d="M1747.4,570.61h11.09
			c5.27,0,9.15,0.52,11.64,1.57c2.48,1.05,3.73,2.82,3.73,5.33c0,2.41-1.21,4.27-3.62,5.57c-2.42,1.31-5.93,1.96-10.54,1.96h-12.3
			V570.61z"/>
		<path fill="none" stroke="#000000" stroke-width="0.5" stroke-linecap="round" stroke-linejoin="round" d="M1747.4,593.52h12.95
			c5.64,0,9.85,0.57,12.63,1.72c2.78,1.15,4.17,3.19,4.17,6.12c0,1.83-0.56,3.3-1.7,4.39c-1.13,1.1-2.56,1.94-4.28,2.52
			c-1.72,0.57-3.61,0.95-5.65,1.13c-2.06,0.19-3.96,0.28-5.71,0.28h-12.41V593.52z"/>
		<polygon fill="none" stroke="#000000" stroke-width="0.5" stroke-linecap="round" stroke-linejoin="round" points="
			1810.53,617.99 1826.01,617.99 1833.04,605.28 1866.75,605.28 1873.99,617.99 1889.8,617.99 1856.32,562.45 1844.35,562.45 		"/>
		<polygon fill="none" stroke="#000000" stroke-width="0.5" stroke-linecap="round" stroke-linejoin="round" points="
			1837.76,596.81 1849.95,574.22 1861.92,596.81 		"/>
		<polygon fill="none" stroke="#000000" stroke-width="0.5" stroke-linecap="round" stroke-linejoin="round" points="
			1912.86,617.99 1926.7,617.99 1926.7,593.36 1963.04,593.36 1963.04,617.99 1976.87,617.99 1976.87,562.45 1963.04,562.45 
			1963.04,584.89 1926.7,584.89 1926.7,562.45 1912.86,562.45 		"/>
		<polygon fill="none" stroke="#000000" stroke-width="0.5" stroke-linecap="round" stroke-linejoin="round" points="
			2009.37,617.99 2023.21,617.99 2023.21,575.08 2023.43,575.08 2060.32,617.99 2077.89,617.99 2077.89,562.45 2064.05,562.45 
			2064.05,604.03 2063.83,604.03 2027.71,562.45 2009.37,562.45 		"/>
		<polygon fill="none" stroke="#000000" stroke-width="0.5" stroke-linecap="round" stroke-linejoin="round" points="
			2126.09,617.99 2139.92,617.99 2139.92,571.08 2163.75,571.08 2163.75,562.45 2102.26,562.45 2102.26,571.08 2126.09,571.08 		"/>
		<polygon fill="none" stroke="#000000" stroke-width="0.5" stroke-linecap="round" stroke-linejoin="round" points="
			2188.12,617.99 2201.96,617.99 2201.96,593.36 2238.3,593.36 2238.3,617.99 2252.13,617.99 2252.13,562.45 2238.3,562.45 
			2238.3,584.89 2201.96,584.89 2201.96,562.45 2188.12,562.45 		"/>
		<polygon fill="none" stroke="#000000" stroke-width="0.5" stroke-linecap="round" stroke-linejoin="round" points="
			2275.19,617.99 2290.67,617.99 2297.7,605.28 2331.41,605.28 2338.65,617.99 2354.46,617.99 2320.98,562.45 2309.01,562.45 		"/>
		<polygon fill="none" stroke="#000000" stroke-width="0.5" stroke-linecap="round" stroke-linejoin="round" points="
			2302.42,596.81 2314.61,574.22 2326.58,596.81 		"/>
		
			<rect x="2377.52" y="562.45" fill="none" stroke="#000000" stroke-width="0.5" stroke-linecap="round" stroke-linejoin="round" width="13.83" height="55.54"/>
	</g>
</g>
</svg>
